<svg width="95" height="115" xmlns="http://www.w3.org/2000/svg">
 <g id="Layer_1">
  <title>Layer 1</title>
  <ellipse id="svg_20" cy="0" cx="77.93016" stroke-width="0" stroke="#000" fill="#05125b"/>
  <ellipse transform="rotate(114.572 66.803 24.1516)" stroke="#000" opacity="undefined" ry="10.11496" rx="5.50569" id="svg_49" cy="24.15132" cx="66.80283" stroke-width="0.2" fill="url(#svg_39)"/>
  <path transform="rotate(-90.8298 73.147 35.7696)" stroke="#000" stroke-width="0.2" id="svg_48" d="m73.14671,41.46658c-5.625,0 -10.18126,-2.54952 -10.18126,-5.69708c0,-3.14756 4.55626,-5.69708 10.18126,-5.69708c5.62499,0 10.18125,2.54952 10.18125,5.69708c0,3.14756 -4.55626,5.69708 -10.18125,5.69708z" opacity="undefined" fill="url(#svg_28)"/>
  <ellipse transform="rotate(-10.9553 46.2554 79.4236)" stroke="url(#svg_56)" ry="28.29787" rx="40.61787" id="svg_3" cy="79.42399" cx="46.25538" stroke-opacity="0.14" stroke-width="0" fill="#d2d3f7"/>
  <ellipse transform="rotate(5.07178 33.9263 77.0496)" stroke-width="0" ry="13.09883" rx="5.34046" id="svg_40" cy="77.04963" cx="33.92634" fill="url(#svg_97)" stroke="#000"/>
  <path transform="rotate(47.7752 91.751 52.9796)" stroke-width="0" fill-opacity="0.08" stroke-opacity="0.14" id="svg_51" d="m90.18476,99.17415c-10.97885,0 -17.17033,-21.14008 -17.17033,-45.13625c0,-23.99616 9.94728,-47.25341 20.92612,-47.25341c10.97885,0 16.54787,14.57595 16.54787,38.57212c0,23.99616 -9.32482,53.81755 -20.30367,53.81755l0,-0.00001l0.00001,0z" opacity="undefined" fill="url(#svg_55)" stroke="url(#svg_56)"/>
  <path transform="rotate(56.3166 129.336 22.4646)" id="svg_59" d="m129.10338,24.7536c-2.94127,0 -6.32914,3.31637 -4.92935,-0.83319c1.39979,-4.14956 1.98808,-4.99914 4.92935,-4.99914c2.94127,0 5.8054,1.12704 5.71805,4.99914c-0.08735,3.8721 -2.77678,0.83319 -5.71805,0.83319z" opacity="undefined" stroke-opacity="0.14" stroke-width="0" fill-opacity="0.07" fill="url(#svg_55)" stroke="url(#svg_56)"/>
  <ellipse transform="rotate(117.46 28.2415 55.9646)" stroke="#000" opacity="undefined" ry="10.11496" rx="5.50569" id="svg_37" cy="55.9649" cx="28.24153" stroke-width="0.2" fill="url(#svg_39)"/>
  <path transform="rotate(123.314 26.1322 43.8296)" stroke-width="0.2" id="svg_36" d="m26.13226,50.62745c-5.625,0 -10.18125,-3.04192 -10.18125,-6.79738c0,-3.75546 4.55625,-6.79738 10.18125,-6.79738c5.625,0 10.18125,3.04192 10.18125,6.79738c0,3.75546 -4.55625,6.79738 -10.18125,6.79738z" opacity="undefined" fill="url(#svg_28)" stroke="#000"/>
  <ellipse transform="rotate(5.07178 62.498 75.1446)" stroke-width="0" ry="13.09883" rx="5.34046" id="svg_41" cy="75.14487" cx="62.49777" fill="url(#svg_97)" stroke="#000"/>
  <path stroke-width="0.2" id="svg_26" d="m49.10042,75.81069c-14.8558,0 -26.889,-10.77256 -26.889,-24.07201c0,-13.29945 12.0332,-24.07201 26.889,-24.07201c14.8558,0 28.01377,10.77256 28.01377,24.07201c0,13.29945 -13.15797,24.07201 -28.01377,24.07201z" opacity="undefined" fill="url(#svg_28)" stroke="#000"/>
  <path id="svg_47" d="m45.90287,39.52819c-11.6749,0 -21.13157,-8.1729 -21.13157,-18.2629c0,-10.09 9.45667,-18.2629 21.13157,-18.2629c11.6749,0 21.13157,8.1729 21.13157,18.2629c0,10.09 -9.45667,18.2629 -21.13157,18.2629z" opacity="undefined" stroke-width="0.2" fill="url(#svg_21)" stroke="#000"/>
  <path stroke-width="0.2" id="svg_29" d="m49.18822,41.04878c-12.53651,0 -22.69109,-8.96119 -22.69109,-20.02439c0,-11.0632 10.15458,-20.02439 22.69109,-20.02439c12.53651,0 23.64026,8.96119 23.64026,20.02439c0,11.0632 -11.10375,20.02439 -23.64026,20.02439z" opacity="undefined" fill="url(#svg_28)" stroke="#000"/>
  <ellipse transform="rotate(1.00506 54.932 17.2546)" stroke-width="0" ry="4.97953" rx="5.26787" id="svg_24" cy="17.25459" cx="54.93144" fill="url(#svg_35)" stroke="#000"/>
  <path transform="rotate(23.08 56.261 82.9256)" id="svg_42" d="m59.39378,88.23384c5.59351,0.57392 7.18131,-2.62647 7.18131,-5.49354c0,-2.86707 -4.6157,-5.1894 -10.31409,-5.1894c-5.69839,0 -10.31409,2.32233 -10.31409,5.1894c0,2.86707 7.85335,4.91962 13.44687,5.49354l-0.00001,0l0.00001,0z" opacity="undefined" stroke-width="0" fill="#05125b" stroke="#000"/>
  <path transform="rotate(31.4037 28.1657 81.4976)" id="svg_46" d="m31.29854,86.80527c5.59351,0.57392 7.18131,-2.62648 7.18131,-5.49354c0,-2.86707 -4.61569,-5.1894 -10.31408,-5.1894c-5.69839,0 -10.31409,2.32233 -10.31409,5.1894c0,2.86706 7.85335,4.91962 13.44687,5.49354l-0.00001,0z" opacity="undefined" stroke-width="0" fill="#05125b" stroke="#000"/>
  <path transform="rotate(157.302 6.1953 94.9546)" id="svg_5" d="m2.79108,97.93166l3.17676,-2.97813l-3.17676,-2.97815l1.81568,-1.70198l4.99283,4.68013l-4.99283,4.68158" stroke-opacity="0.14" stroke-width="0" stroke="url(#svg_56)" fill="#2e36db"/>
  <path transform="rotate(-36.9773 84.494 60.9116)" id="svg_6" d="m81.08896,63.8891l3.17676,-2.97813l-3.17676,-2.97815l1.81568,-1.70198l4.99283,4.68013l-4.99283,4.68158" stroke-opacity="0.14" stroke-width="0" stroke="url(#svg_56)" fill="#2e36db"/>
  <path transform="rotate(66.7432 63.217 107.295)" id="svg_7" d="m59.81236,110.27209l3.17676,-2.97813l-3.17676,-2.97815l1.81568,-1.70198l4.99283,4.68013l-4.99283,4.68158" stroke-opacity="0.14" stroke-width="0" stroke="url(#svg_56)" fill="#2e36db"/>
 </g>
 <defs>
  <linearGradient y2="0" x2="1" y1="0" x1="0" id="svg_55">
   <stop offset="0" stop-color="#686666"/>
   <stop offset="1" stop-color="#979999"/>
  </linearGradient>
  <radialGradient gradientTransform="rotate(21.000000000000007,0.5,0.5) translate(0.041666666666666685,0) scale(0.9166666666666666,1)" cy="0.5" cx="0.5" r="5.65685" spreadMethod="pad" id="svg_56">
   <stop offset="0" stop-color="#ffffff"/>
   <stop offset="1" stop-color="#000000"/>
  </radialGradient>
  <linearGradient y2="0" x2="1" y1="0.35628" x1="0.28125" id="svg_97">
   <stop offset="0.01953" stop-color="#05125b"/>
   <stop offset="0.99609" stop-opacity="0.99219" stop-color="#0b0b3a"/>
   <stop offset="1" stop-opacity="0.99609" stop-color="#040466"/>
  </linearGradient>
  <linearGradient y2="0" x2="1" y1="0" x1="0" id="svg_21">
   <stop offset="1" stop-color="#CFCA6D"/>
   <stop stop-opacity="0.99609" offset="1" stop-color="#636309"/>
  </linearGradient>
  <linearGradient y2="0" x2="1" y1="0" x1="0" id="svg_28">
   <stop offset="0" stop-opacity="0.99609" stop-color="#bf0000"/>
   <stop offset="0.89063" stop-opacity="0.99609" stop-color="#560303"/>
  </linearGradient>
  <linearGradient id="svg_35" x1="0" y1="0" x2="1" y2="0">
   <stop stop-color="#eff1f7" stop-opacity="0.99219" offset="0.69141"/>
   <stop stop-color="#a5a5a4" offset="0.99609" stop-opacity="0.99609"/>
  </linearGradient>
  <linearGradient y2="0" x2="0" y1="0" x1="1" id="svg_39">
   <stop offset="0" stop-opacity="0.99609" stop-color="#bf0000"/>
   <stop offset="0.89063" stop-opacity="0.99609" stop-color="#560303"/>
  </linearGradient>
 </defs>
</svg>