<svg width="260" height="251" xmlns="http://www.w3.org/2000/svg">
 <g id="Layer_1">
  <title>Layer 1</title>
  <ellipse transform="rotate(-11 97 198.444)" ry="28" rx="41" id="svg_2" cy="198.44444" cx="97" stroke-width="0" stroke="url(#svg_2)" fill="#d2d3f7"/>
  <ellipse transform="rotate(5.07178 85.0897 195.231)" stroke="#000" fill="url(#svg_97)" cx="85.08969" cy="195.23104" id="svg_40" rx="5.34046" ry="13.09883" stroke-width="0"/>
  <path stroke="url(#svg_56)" fill="url(#svg_55)" opacity="undefined" d="m141.34811,217.35556c-10.97885,0 -17.17033,-21.14008 -17.17033,-45.13625c0,-23.99616 9.94728,-47.25341 20.92612,-47.25341c10.97885,0 16.54787,14.57595 16.54787,38.57212c0,23.99616 -9.32482,53.81755 -20.30367,53.81755l0,-0.00001l0.00001,0z" id="svg_51" stroke-opacity="0.14" fill-opacity="0.08" stroke-width="0" transform="rotate(47.7752 142.914 171.161)"/>
  <path stroke="url(#svg_56)" fill="url(#svg_55)" fill-opacity="0.07" stroke-width="0" stroke-opacity="0.14" opacity="undefined" d="m180.26673,142.93501c-2.94127,0 -6.32914,3.31637 -4.92935,-0.83319c1.39979,-4.14956 1.98808,-4.99914 4.92935,-4.99914c2.94127,0 5.8054,1.12704 5.71805,4.99914c-0.08735,3.8721 -2.77678,0.83319 -5.71805,0.83319z" id="svg_59" transform="rotate(56.3166 180.499 140.646)"/>
  <ellipse fill="#05125b" stroke="#000" stroke-width="0" cx="77.93016" cy="0" id="svg_20"/>
  <ellipse fill="url(#svg_39)" stroke-width="0.2" cx="79.40488" cy="174.14631" id="svg_37" rx="5.50569" ry="10.11496" opacity="undefined" stroke="#000" transform="rotate(117.46 79.4049 174.146)"/>
  <path transform="rotate(123.314 77.2956 162.011)" stroke="#000" fill="url(#svg_28)" opacity="undefined" d="m77.29561,168.80886c-5.625,0 -10.18125,-3.04192 -10.18125,-6.79738c0,-3.75546 4.55625,-6.79738 10.18125,-6.79738c5.625,0 10.18125,3.04192 10.18125,6.79738c0,3.75546 -4.55625,6.79738 -10.18125,6.79738z" id="svg_36" stroke-width="0.2"/>
  <ellipse transform="rotate(5.07178 113.661 193.326)" stroke="#000" fill="url(#svg_97)" cx="113.66112" cy="193.32628" id="svg_41" rx="5.34046" ry="13.09883" stroke-width="0"/>
  <path stroke="#000" fill="url(#svg_28)" opacity="undefined" d="m100.26377,193.9921c-14.8558,0 -26.889,-10.77256 -26.889,-24.07201c0,-13.29945 12.0332,-24.07201 26.889,-24.07201c14.8558,0 28.01377,10.77256 28.01377,24.07201c0,13.29945 -13.15797,24.07201 -28.01377,24.07201z" id="svg_26" stroke-width="0.2"/>
  <path stroke="#000" fill="url(#svg_21)" stroke-width="0.2" opacity="undefined" d="m97.06622,157.7096c-11.6749,0 -21.13157,-8.1729 -21.13157,-18.2629c0,-10.09 9.45667,-18.2629 21.13157,-18.2629c11.6749,0 21.13157,8.1729 21.13157,18.2629c0,10.09 -9.45667,18.2629 -21.13157,18.2629z" id="svg_47"/>
  <path stroke="#000" fill="url(#svg_28)" opacity="undefined" d="m100.35157,159.23019c-12.53651,0 -22.69109,-8.96119 -22.69109,-20.02439c0,-11.0632 10.15458,-20.02439 22.69109,-20.02439c12.53651,0 23.64026,8.96119 23.64026,20.02439c0,11.0632 -11.10375,20.02439 -23.64026,20.02439z" id="svg_29" stroke-width="0.2"/>
  <ellipse transform="rotate(1.00506 106.095 135.436)" stroke="#000" fill="url(#svg_35)" cx="106.09479" cy="135.436" id="svg_24" rx="5.26787" ry="4.97953" stroke-width="0"/>
  <path transform="rotate(23.08 107.424 201.107)" stroke="#000" fill="#05125b" stroke-width="0" opacity="undefined" d="m110.55713,206.41525c5.59351,0.57392 7.18131,-2.62647 7.18131,-5.49354c0,-2.86707 -4.6157,-5.1894 -10.31409,-5.1894c-5.69839,0 -10.31409,2.32233 -10.31409,5.1894c0,2.86707 7.85335,4.91962 13.44687,5.49354l-0.00001,0l0.00001,0z" id="svg_42"/>
  <path transform="rotate(31.4037 79.3291 199.679)" stroke="#000" fill="#05125b" stroke-width="0" opacity="undefined" d="m82.46189,204.98668c5.59351,0.57392 7.18131,-2.62648 7.18131,-5.49354c0,-2.86707 -4.61569,-5.1894 -10.31408,-5.1894c-5.69839,0 -10.31409,2.32233 -10.31409,5.1894c0,2.86706 7.85335,4.91962 13.44687,5.49354l-0.00001,0z" id="svg_46"/>
  <ellipse fill="url(#svg_39)" stroke-width="0.2" cx="129.88107" cy="140.20507" id="svg_49" rx="5.50569" ry="10.11496" opacity="undefined" stroke="#000" transform="rotate(-179.357 129.881 140.205)"/>
  <path fill="url(#svg_28)" opacity="undefined" d="m126.43772,159.22246c-5.625,0 -10.18126,-2.54952 -10.18126,-5.69708c0,-3.14756 4.55626,-5.69708 10.18126,-5.69708c5.62499,0 10.18125,2.54952 10.18125,5.69708c0,3.14756 -4.55626,5.69708 -10.18125,5.69708z" id="svg_48" stroke-width="0.2" stroke="#000" transform="rotate(131.231 126.438 153.525)"/>
  <path stroke="#000" fill="url(#svg_7)" opacity="undefined" d="m128.20575,133.54241c-4.08568,0 -7.39509,-2.64056 -7.39509,-5.90051c0,-3.25995 3.30939,-5.90051 7.39509,-5.90051c4.08568,0 7.39509,2.64056 7.39509,5.90051c0,3.25995 -3.30939,5.90051 -7.39509,5.90051z" id="svg_1" stroke-width="0.2"/>
  <path transform="rotate(157 55.8855 213.93)" stroke="url(#svg_6)" id="svg_3" d="m52.38108,210.87657l3.27067,3.05365l-3.27067,3.05365l1.86915,1.74617l5.13982,-4.79981l-5.13982,-4.80018" stroke-width="0" fill="#2e36db"/>
  <path transform="rotate(-34.0654 136.33 180.597)" stroke="url(#svg_6)" id="svg_8" d="m132.82553,177.54324l3.27067,3.05365l-3.27067,3.05365l1.86916,1.74617l5.13982,-4.79982l-5.13982,-4.80018" stroke-width="0" fill="#2e36db"/>
  <path transform="rotate(69.3832 112.33 226.819)" stroke="url(#svg_6)" id="svg_9" d="m108.82553,223.76546l3.27067,3.05365l-3.27067,3.05365l1.86916,1.74617l5.13982,-4.79982l-5.13982,-4.80018" stroke-width="0" fill="#2e36db"/>
 </g>
 <defs>
  <linearGradient id="svg_55" x1="0" y1="0" x2="1" y2="0">
   <stop stop-color="#686666" offset="0"/>
   <stop stop-color="#979999" offset="1"/>
  </linearGradient>
  <radialGradient id="svg_56" spreadMethod="pad" r="5.65685" cx="0.5" cy="0.5" gradientTransform="rotate(21.000000000000007,0.5,0.5) translate(0.041666666666666685,0) scale(0.9166666666666666,1)">
   <stop stop-color="#ffffff" offset="0"/>
   <stop stop-color="#000000" offset="1"/>
  </radialGradient>
  <linearGradient id="svg_97" x1="0.28125" y1="0.35628" x2="1" y2="0">
   <stop stop-color="#05125b" offset="0.01953"/>
   <stop stop-color="#0b0b3a" stop-opacity="0.99219" offset="0.99609"/>
   <stop stop-color="#040466" stop-opacity="0.99609" offset="1"/>
  </linearGradient>
  <linearGradient id="svg_7" x1="0" y1="0" x2="1" y2="0">
   <stop stop-color="#cfca6d" offset="1" stop-opacity="0.99609"/>
   <stop stop-color="#91910f" offset="1" stop-opacity="0.98438"/>

  </linearGradient>
  <linearGradient id="svg_21" x1="0" y1="0" x2="1" y2="0">
   <stop stop-color="#CFCA6D" offset="1"/>
   <stop stop-color="#636309" offset="1" stop-opacity="0.99609"/>
  </linearGradient>
  <linearGradient id="svg_28" x1="0" y1="0" x2="1" y2="0">
   <stop stop-color="#bf0000" stop-opacity="0.99609" offset="0"/>
   <stop stop-color="#560303" stop-opacity="0.99609" offset="0.89063"/>
  </linearGradient>
  <linearGradient y2="0" x2="1" y1="0" x1="0" id="svg_35">
   <stop offset="0.69141" stop-opacity="0.99219" stop-color="#eff1f7"/>
   <stop stop-opacity="0.99609" offset="0.99609" stop-color="#a5a5a4"/>
  </linearGradient>
  <linearGradient id="svg_39" x1="1" y1="0" x2="0" y2="0">
   <stop stop-color="#bf0000" stop-opacity="0.99609" offset="0"/>
   <stop stop-color="#560303" stop-opacity="0.99609" offset="0.89063"/>
  </linearGradient>
  <ellipse x2="1" x1="1" transform="rotate(-11 97 198)" ry="28" rx="41" id="svg_6" cy="198" cx="97" stroke-width="0" stroke="url(#svg_2)" fill="#d2d3f7"/>
 </defs>
</svg>