<svg width="80" height="115" xmlns="http://www.w3.org/2000/svg">
 <g id="Layer_1">
  <title>Layer 1</title>
  <ellipse fill="#05125b" stroke="#000" stroke-width="0" cx="77.93016" cy="0" id="svg_20"/>
  <g id="svg_18">
   <ellipse transform="rotate(45.5225 60.4795 62.956)" stroke="#000" fill="#0C372C" cx="60.47971" cy="62.95627" id="svg_3" rx="12.92042" ry="7.74088" stroke-width="0" opacity="NaN"/>
   <ellipse transform="rotate(17.3591 48.9235 93.059)" stroke="#000" fill="url(#svg_97)" cx="48.92383" cy="93.05893" id="svg_14" rx="5.90405" ry="16.51904" stroke-width="0"/>
   <ellipse transform="rotate(25.9557 23.256 100.383)" stroke="#000" fill="url(#svg_97)" cx="23.25593" cy="100.38342" id="svg_11" rx="5.64576" ry="11.92121" stroke-width="0"/>
   <path stroke="#000" fill="url(#svg_70)" opacity="undefined" d="m35.84909,96.9921c-14.8558,0 -26.889,-10.77256 -26.889,-24.07201c0,-13.29945 12.0332,-24.07201 26.889,-24.07201c14.8558,0 28.01377,10.77256 28.01377,24.07201c0,13.29945 -13.15797,24.07201 -28.01377,24.07201z" id="svg_2" stroke-width="0.2"/>
   <ellipse transform="rotate(1.00506 22.1563 9.15)" stroke="#000" fill="#05125b" cx="22.15631" cy="9.15028" id="svg_6" rx="8.07863" ry="7.64829" stroke-width="0"/>
   <path stroke="#000" fill="url(#svg_21)" stroke-width="0.2" opacity="undefined" d="m33.36583,62.13817c-13.12189,0 -23.75062,-9.45151 -23.75062,-21.12004c0,-11.66853 10.62873,-21.12004 23.75062,-21.12004c13.12189,0 23.75062,9.45151 23.75062,21.12004c0,11.66853 -10.62873,21.12004 -23.75062,21.12004z" id="svg_1"/>
   <path transform="rotate(12.4508 30.1969 27.536)" stroke="#000" fill="url(#svg_82)" opacity="NaN" d="m10.08893,44.43847l42.8129,-22.37791l-2.29281,-5.22993l-6.2338,-4.22574c0.25935,0.28138 -6.2342,-1.40891 -6.49394,-1.40891c-0.25974,0 -10.12992,-0.28172 -10.38927,-0.5631c0.25935,0.28138 -8.57187,3.38026 -8.83122,3.09887c0.25935,0.28138 -4.93549,3.9437 -5.19483,3.66231c0.25935,0.28138 -4.67575,8.73286 -4.93509,8.45148c0.25935,0.28138 -0.77962,7.606 -1.03896,7.32461c0.25935,0.28138 0.51909,7.32429 0.25974,7.0429c0.25935,0.28139 2.33728,4.22541 2.33728,4.22541l0,0l0,0.00001z" id="svg_5" stroke-width="0"/>
   <ellipse stroke="#000000" fill="#231f1f" cx="32.5374" cy="39.20416" id="svg_8" rx="2.42399" ry="2.3819" stroke-width="0"/>
   <ellipse fill="#231f1f" cx="53.05214" cy="34.00349" id="svg_9" rx="1.77569" ry="1.91179" stroke-width="0" stroke="#000000"/>
   <path transform="rotate(18.7039 26.9827 109.98)" stroke="#000" fill="#05125b" stroke-width="0" opacity="undefined" d="m21.75285,115.51919c-5.73657,0 -5.14472,-3.29553 -5.14472,-6.06489c0,-2.76936 4.64662,-5.01254 10.3832,-5.01254c5.73657,0 10.3832,2.24318 10.3832,5.01254c0,2.76936 -9.8851,6.06489 -15.62168,6.06489z" id="svg_12"/>
   <path transform="rotate(18.1936 53.4595 106.721)" stroke="#000" fill="#05125b" stroke-width="0" opacity="undefined" d="m50.03973,113.07029c-6.10658,0.68655 -7.84003,-3.1419 -7.84003,-6.57161c0,-3.42971 5.03908,-6.20778 11.26016,-6.20778c6.22108,0 11.26016,2.77807 11.26016,6.20778c0,3.42971 -8.57371,5.88506 -14.6803,6.57161l0.00001,0z" id="svg_15"/>
   <path transform="rotate(107.515 11.5508 69.083)" stroke="#000" fill="url(#svg_70)" opacity="undefined" d="m11.55076,75.88019c-7.46924,0 -13.51933,-3.04192 -13.51933,-6.79738c0,-3.75546 6.05009,-6.79738 13.51933,-6.79738c7.46924,0 13.51933,3.04192 13.51933,6.79738c0,3.75546 -6.05009,6.79738 -13.51933,6.79738z" id="svg_4" stroke-width="0.2"/>
   <ellipse transform="rotate(-61.967 16.5596 84.216)" stroke="#000" fill="url(#svg_70)" stroke-width="0.2" cx="16.55954" cy="84.21648" id="svg_25" rx="6.47377" ry="10.38994" opacity="undefined"/>
   <path fill="url(#svg_7)" opacity="undefined" d="m28.81702,93.28324c-3.69105,0 -6.6808,-2.96021 -6.6808,-6.6148c0,-3.65458 2.98974,-6.6148 6.6808,-6.6148c3.69105,0 6.6808,2.96021 6.6808,6.6148c0,3.65458 -2.98974,6.6148 -6.6808,6.6148z" id="svg_16" stroke-width="0.2" stroke="#000"/>
   <ellipse transform="rotate(-69.0437 63.3115 79.018)" stroke="#000" fill="#0C372C" cx="63.31179" cy="79.01753" id="svg_27" rx="11.51626" ry="5.8892" stroke-width="0.2" opacity="NaN"/>
   <path fill="url(#svg_10)" stroke-width="0.2" opacity="undefined" d="m59.41338,94.01709c-3.67301,0 -6.64815,-2.75718 -6.64815,-6.16111c0,-3.40393 2.97514,-6.16111 6.64815,-6.16111c3.67301,0 6.64815,2.75718 6.64815,6.16111c0,3.40393 -2.97514,6.16111 -6.64815,6.16111z" id="svg_17" stroke="#000"/>
   <ellipse fill="url(#svg_70)" stroke-width="0" cx="9.56381" cy="79.83282" id="svg_44" rx="5.54922" ry="5.13087" opacity="undefined" stroke="#000"/>
   <path stroke="#000" fill="#0C372C" stroke-width="0" opacity="undefined" d="m65.2913,76.07992c-3.42465,0 -4.27247,-1.88951 -4.27247,-5.00818c0,-3.11866 0.84782,-6.28138 4.27247,-6.28138c3.42465,0 6.19862,2.52611 6.19862,5.64478c0,3.11866 -2.77397,5.64478 -6.19862,5.64478z" id="svg_45"/>
   <ellipse fill="url(#svg_55)" stroke="url(#svg_56)" stroke-width="0" stroke-opacity="0.14" fill-opacity="0.15" cx="37.07659" cy="38.31978" id="svg_58" rx="0.38462"/>
   <line transform="rotate(-9.64399 44.632 51.281)" id="svg_13" y2="50.77868" x2="52.29631" y1="51.78392" x1="36.9676" fill="none" stroke="#444444"/>
  </g>
 </g>
 <defs>
  <linearGradient id="svg_55" x1="0" y1="0" x2="1" y2="0">
   <stop stop-color="#686666" offset="0"/>
   <stop stop-color="#979999" offset="1"/>
  </linearGradient>
  <radialGradient id="svg_56" spreadMethod="pad" r="5.65685" cx="0.5" cy="0.5" gradientTransform="rotate(21.000000000000007,0.5,0.5) translate(0.041666666666666685,0) scale(0.9166666666666666,1)">
   <stop stop-color="#ffffff" offset="0"/>
   <stop stop-color="#000000" offset="1"/>
  </radialGradient>
  <linearGradient id="svg_70" x1="0" y1="0" x2="1" y2="0">
   <stop stop-color="#094209" stop-opacity="0.99609" offset="0"/>
   <stop stop-color="#0c372c" stop-opacity="0.99219" offset="0.89063"/>
  </linearGradient>
  <linearGradient id="svg_82" x1="0" y1="0" x2="1" y2="0">
   <stop stop-color="#0e470e" stop-opacity="0.99219" offset="0.125"/>
   <stop stop-color="#0C372C" offset="1"/>
  </linearGradient>
  <linearGradient id="svg_97" x1="0.28125" y1="0.35628" x2="1" y2="0">
   <stop stop-color="#05125b" offset="0.01953"/>
   <stop stop-color="#0b0b3a" stop-opacity="0.99219" offset="0.99609"/>
   <stop stop-color="#040466" stop-opacity="0.99609" offset="1"/>
  </linearGradient>
  <linearGradient id="svg_7" x1="0" y1="0" x2="1" y2="0">
   <stop stop-color="#cfca6d" offset="1" stop-opacity="0.99609"/>
   <stop stop-color="#91910f" offset="1" stop-opacity="0.98438"/>
  </linearGradient>
  <linearGradient id="svg_10" x1="0" y1="0" x2="1" y2="0">
   <stop stop-color="#cfca6d" offset="1" stop-opacity="0.99609"/>
   <stop stop-color="#84840e" offset="1" stop-opacity="0.98828"/>
  </linearGradient>
  <linearGradient id="svg_21" x1="0" y1="0" x2="1" y2="0">
   <stop stop-color="#CFCA6D" offset="1"/>
   <stop stop-color="#636309" offset="1" stop-opacity="0.99609"/>
  </linearGradient>
 </defs>
</svg>