<svg width="80" height="115" xmlns="http://www.w3.org/2000/svg">
 <g id="Layer_1">
  <title>Layer 1</title>
  <ellipse fill="#05125b" stroke="#000" stroke-width="0" cx="77.93016" cy="0" id="svg_20"/>
  <g id="svg_13">
   <ellipse transform="rotate(-11.5106 45.481 76.0938)" stroke="#000" fill="url(#svg_97)" cx="45.48136" cy="76.0937" id="svg_14" rx="5.90405" ry="16.51904" stroke-width="0"/>
   <ellipse transform="rotate(5.07178 19.6135 82.2178)" stroke="#000" fill="url(#svg_97)" cx="19.6135" cy="82.21819" id="svg_11" rx="5.34046" ry="13.09883" stroke-width="0"/>
   <path stroke="#000" fill="url(#svg_70)" opacity="undefined" d="m32.40662,80.02687c-14.8558,0 -26.889,-10.77256 -26.889,-24.07201c0,-13.29945 12.0332,-24.07201 26.889,-24.07201c14.8558,0 28.01377,10.77256 28.01377,24.07201c0,13.29945 -13.15797,24.07201 -28.01377,24.07201z" id="svg_2" stroke-width="0.2"/>
   <ellipse transform="rotate(71.8505 55.251 51.4208)" fill="#0C372C" cx="55.2509" cy="51.42042" id="svg_3" rx="10.5926" ry="5.89216" opacity="NaN" stroke-width="0.3" stroke="#000000"/>
   <ellipse transform="rotate(1.00506 28.9025 8.78877)" stroke="#000" fill="#05125b" cx="28.90252" cy="8.78882" id="svg_6" rx="8.07863" ry="7.64829" stroke-width="0"/>
   <path transform="rotate(103.956 10.3724 54.7588)" stroke="#000" fill="url(#svg_70)" opacity="undefined" d="m10.37244,61.55647c-7.46924,0 -13.51933,-3.04192 -13.51933,-6.79738c0,-3.75546 6.05009,-6.79738 13.51933,-6.79738c7.46924,0 13.51933,3.04192 13.51933,6.79738c0,3.75546 -6.05009,6.79738 -13.51933,6.79738z" id="svg_4" stroke-width="0.2"/>
   <path stroke="#000" fill="url(#svg_21)" stroke-width="0.2" opacity="undefined" d="m32.56487,55.73898c-13.12189,0 -23.75062,-9.45151 -23.75062,-21.12004c0,-11.66853 10.62873,-21.12004 23.75062,-21.12004c13.12189,0 23.75062,9.45151 23.75062,21.12004c0,11.66853 -10.62873,21.12004 -23.75062,21.12004z" id="svg_1"/>
   <path transform="rotate(23.0073 33.3582 29.0608)" fill="url(#svg_82)" opacity="NaN" d="m12.21996,48.76392l45.0065,-26.08503l-2.41029,-6.09632l-6.5532,-4.92578c0.27264,0.32799 -6.55362,-1.64231 -6.82667,-1.64231c-0.27305,0 -10.64895,-0.32839 -10.92158,-0.65638c0.27264,0.32799 -9.01107,3.94023 -9.2837,3.61223c0.27264,0.32799 -5.18837,4.59701 -5.461,4.26901c0.27264,0.32799 -4.91532,10.17954 -5.18795,9.85155c0.27264,0.32799 -0.81957,8.86601 -1.09219,8.538c0.27264,0.32799 0.54569,8.53763 0.27305,8.20963c0.27264,0.32801 2.45704,4.92539 2.45704,4.92539l0,0l0,0.00001l-0.00001,0z" id="svg_5" stroke-width="0" stroke="#000"/>
   <ellipse fill="#231f1f" cx="24.00059" cy="45.63515" id="svg_8" rx="1.85795" ry="1.62718" stroke-width="0" stroke="#000000"/>
   <ellipse fill="#231f1f" cx="46.77948" cy="44.58543" id="svg_9" rx="1.20965" ry="1.15708" stroke-width="0" stroke="#000000"/>
   <path transform="rotate(36.0375 23.5402 93.0148)" stroke="#000" fill="#05125b" stroke-width="0" opacity="undefined" d="m18.31038,98.55396c-5.73657,0 -5.14472,-3.29553 -5.14472,-6.06489c0,-2.76936 4.64662,-5.01254 10.3832,-5.01254c5.73657,0 10.3832,2.24318 10.3832,5.01254c0,2.76936 -9.8851,6.06489 -15.62168,6.06489z" id="svg_12"/>
   <path transform="rotate(29.9031 52.417 89.7558)" stroke="#000" fill="#05125b" stroke-width="0" opacity="undefined" d="m48.99726,96.10506c-6.10658,0.68655 -7.84003,-3.1419 -7.84003,-6.57161c0,-3.42971 5.03908,-6.20778 11.26016,-6.20778c6.22108,0 11.26016,2.77807 11.26016,6.20778c0,3.42971 -8.57371,5.88506 -14.6803,6.57161l0.00001,0z" id="svg_15"/>
   <ellipse transform="rotate(-38.7772 14.7774 74.1798)" stroke="#000" fill="url(#svg_70)" stroke-width="0.2" cx="14.77745" cy="74.17955" id="svg_25" rx="6.47377" ry="10.38994" opacity="undefined"/>
   <ellipse fill="#ffffff" cx="36.57233" cy="78.27061" id="svg_23" rx="6.98114" ry="7.16981" stroke-width="0.3" stroke="#000000"/>
   <path fill="url(#svg_7)" opacity="undefined" d="m25.25379,86.11424c-3.69105,0 -6.6808,-2.96021 -6.6808,-6.6148c0,-3.65458 2.98974,-6.6148 6.6808,-6.6148c3.69105,0 6.6808,2.96021 6.6808,6.6148c0,3.65458 -2.98974,6.6148 -6.6808,6.6148z" id="svg_16" stroke-width="0.2" stroke="#000"/>
   <ellipse transform="rotate(-69.0437 53.454 69.2218)" stroke="#000" fill="#0C372C" cx="53.45422" cy="69.22211" id="svg_27" rx="11.51626" ry="5.8892" stroke-width="0.2" opacity="NaN"/>
   <path fill="url(#svg_10)" stroke-width="0.2" opacity="undefined" d="m48.42374,85.35375c-3.67301,0 -6.64815,-2.75718 -6.64815,-6.16111c0,-3.40393 2.97514,-6.16111 6.64815,-6.16111c3.67301,0 6.64815,2.75718 6.64815,6.16111c0,3.40393 -2.97514,6.16111 -6.64815,6.16111z" id="svg_17" stroke="#000"/>
   <ellipse transform="rotate(7.41683 9.8949 67.7728)" fill="url(#svg_70)" stroke-width="0" cx="9.89492" cy="67.77325" id="svg_44" rx="5.54922" ry="5.13087" opacity="undefined" stroke="#000"/>
   <path stroke="#000" fill="#0C372C" stroke-width="0" opacity="undefined" d="m56.18845,68.1713c-3.42465,0 -4.27247,-1.88951 -4.27247,-5.00818c0,-3.11866 0.84782,-6.28138 4.27247,-6.28138c3.42465,0 6.19862,2.52611 6.19862,5.64478c0,3.11866 -2.77397,5.64478 -6.19862,5.64478z" id="svg_45"/>
   <ellipse fill="url(#svg_55)" stroke="url(#svg_56)" stroke-width="0" stroke-opacity="0.14" fill-opacity="0.15" cx="33.63412" cy="21.35455" id="svg_58" rx="0.38462"/>
   <line fill="none" stroke="#000000" x1="31.47799" y1="51.47816" x2="36.76101" y2="51.47816" id="svg_24" stroke-width="0.2"/>
  </g>
 </g>
 <defs>
  <linearGradient id="svg_55" x1="0" y1="0" x2="1" y2="0">
   <stop stop-color="#686666" offset="0"/>
   <stop stop-color="#979999" offset="1"/>
  </linearGradient>
  <radialGradient id="svg_56" spreadMethod="pad" r="5.65685" cx="0.5" cy="0.5" gradientTransform="rotate(21.000000000000007,0.5,0.5) translate(0.041666666666666685,0) scale(0.9166666666666666,1)">
   <stop stop-color="#ffffff" offset="0"/>
   <stop stop-color="#000000" offset="1"/>
  </radialGradient>
  <linearGradient id="svg_70" x1="0" y1="0" x2="1" y2="0">
   <stop stop-color="#094209" stop-opacity="0.99609" offset="0"/>
   <stop stop-color="#0c372c" stop-opacity="0.99219" offset="0.89063"/>
  </linearGradient>
  <linearGradient id="svg_82" x1="0" y1="0" x2="1" y2="0">
   <stop stop-color="#0e470e" stop-opacity="0.99219" offset="0.125"/>
   <stop stop-color="#0C372C" offset="1"/>
  </linearGradient>
  <linearGradient id="svg_97" x1="0.28125" y1="0.35628" x2="1" y2="0">
   <stop stop-color="#05125b" offset="0.01953"/>
   <stop stop-color="#0b0b3a" stop-opacity="0.99219" offset="0.99609"/>
   <stop stop-color="#040466" stop-opacity="0.99609" offset="1"/>
  </linearGradient>
  <linearGradient id="svg_7" x1="0" y1="0" x2="1" y2="0">
   <stop stop-color="#cfca6d" offset="1" stop-opacity="0.99609"/>
   <stop stop-color="#91910f" offset="1" stop-opacity="0.98438"/>
  </linearGradient>
  <linearGradient id="svg_10" x1="0" y1="0" x2="1" y2="0">
   <stop stop-color="#cfca6d" offset="1" stop-opacity="0.99609"/>
   <stop stop-color="#84840e" offset="1" stop-opacity="0.98828"/>
  </linearGradient>
  <linearGradient id="svg_21" x1="0" y1="0" x2="1" y2="0">
   <stop stop-color="#CFCA6D" offset="1"/>
   <stop stop-color="#636309" offset="1" stop-opacity="0.99609"/>
  </linearGradient>
 </defs>
</svg>