<svg width="80" height="120" xmlns="http://www.w3.org/2000/svg">
 <g id="Layer_1">
  <title>Layer 1</title>
  <ellipse id="svg_20" cy="0" cx="77.93016" stroke-width="0" stroke="#000" fill="#05125b"/>
  <g id="svg_18">
   <ellipse transform="rotate(45.5225 57.037 62.5945)" opacity="NaN" stroke-width="0" ry="7.74088" rx="12.92042" id="svg_3" cy="62.59481" cx="57.03724" fill="#0C372C" stroke="#000"/>
   <ellipse transform="rotate(-11.5106 45.481 92.6975)" stroke-width="0" ry="16.51904" rx="5.90405" id="svg_14" cy="92.69747" cx="45.48136" fill="url(#svg_97)" stroke="#000"/>
   <ellipse transform="rotate(5.07178 19.6135 98.8215)" stroke-width="0" ry="13.09883" rx="5.34046" id="svg_11" cy="98.82196" cx="19.6135" fill="url(#svg_97)" stroke="#000"/>
   <path stroke-width="0.2" id="svg_2" d="m32.40662,96.63064c-14.8558,0 -26.889,-10.77256 -26.889,-24.07201c0,-13.29945 12.0332,-24.07201 26.889,-24.07201c14.8558,0 28.01377,10.77256 28.01377,24.07201c0,13.29945 -13.15797,24.07201 -28.01377,24.07201z" opacity="undefined" fill="url(#svg_70)" stroke="#000"/>
   <ellipse transform="rotate(1.00506 18.7138 8.78854)" stroke-width="0" ry="7.64829" rx="8.07863" id="svg_6" cy="8.78882" cx="18.71384" fill="#05125b" stroke="#000"/>
   <path id="svg_1" d="m29.92336,61.77671c-13.12189,0 -23.75062,-9.45151 -23.75062,-21.12004c0,-11.66853 10.62873,-21.12004 23.75062,-21.12004c13.12189,0 23.75062,9.45151 23.75062,21.12004c0,11.66853 -10.62873,21.12004 -23.75062,21.12004z" opacity="undefined" stroke-width="0.2" fill="url(#svg_21)" stroke="#000"/>
   <path transform="rotate(12.4508 26.7544 27.1745)" stroke-width="0" id="svg_5" d="m6.64646,44.07701l42.8129,-22.37791l-2.29281,-5.22993l-6.2338,-4.22574c0.25935,0.28138 -6.2342,-1.40891 -6.49394,-1.40891c-0.25974,0 -10.12992,-0.28172 -10.38927,-0.5631c0.25935,0.28138 -8.57187,3.38026 -8.83122,3.09887c0.25935,0.28138 -4.93549,3.9437 -5.19483,3.66231c0.25935,0.28138 -4.67575,8.73286 -4.93509,8.45148c0.25935,0.28138 -0.77962,7.606 -1.03896,7.32461c0.25935,0.28138 0.51909,7.32429 0.25974,7.0429c0.25935,0.28139 2.33728,4.22541 2.33728,4.22541l0,0l0,0.00001z" opacity="NaN" fill="url(#svg_82)" stroke="#000"/>
   <ellipse stroke-width="0" ry="2.3819" rx="2.42399" id="svg_8" cy="38.8427" cx="29.09493" fill="#231f1f" stroke="#000000"/>
   <ellipse stroke="#000000" stroke-width="0" ry="1.91179" rx="1.77569" id="svg_9" cy="33.64203" cx="49.60967" fill="#231f1f"/>
   <path transform="rotate(36.0375 23.5402 109.619)" id="svg_12" d="m18.31038,115.15773c-5.73657,0 -5.14472,-3.29553 -5.14472,-6.06489c0,-2.76936 4.64662,-5.01254 10.3832,-5.01254c5.73657,0 10.3832,2.24318 10.3832,5.01254c0,2.76936 -9.8851,6.06489 -15.62168,6.06489z" opacity="undefined" stroke-width="0" fill="#05125b" stroke="#000"/>
   <path transform="rotate(29.9031 52.417 106.36)" id="svg_15" d="m48.99726,112.70883c-6.10658,0.68655 -7.84003,-3.1419 -7.84003,-6.57161c0,-3.42971 5.03908,-6.20778 11.26016,-6.20778c6.22108,0 11.26016,2.77807 11.26016,6.20778c0,3.42971 -8.57371,5.88506 -14.6803,6.57161l0.00001,0z" opacity="undefined" stroke-width="0" fill="#05125b" stroke="#000"/>
   <path transform="rotate(3.15379 20.9654 62.5305)" stroke-width="0.2" id="svg_4" d="m20.96543,69.32825c-7.46924,0 -13.51933,-3.04192 -13.51933,-6.79738c0,-3.75546 6.05009,-6.79738 13.51933,-6.79738c7.46924,0 13.51933,3.04192 13.51933,6.79738c0,3.75546 -6.05009,6.79738 -13.51933,6.79738z" opacity="undefined" fill="url(#svg_70)" stroke="#000"/>
   <ellipse transform="rotate(109.09 38.6409 66.7315)" opacity="undefined" ry="10.38994" rx="6.47377" id="svg_25" cy="66.73121" cx="38.64088" stroke-width="0.2" fill="url(#svg_70)" stroke="#000"/>
   <ellipse transform="rotate(-69.0437 59.869 78.6565)" opacity="NaN" stroke-width="0.2" ry="5.8892" rx="11.51626" id="svg_27" cy="78.65607" cx="59.86932" fill="#0C372C" stroke="#000"/>
   <path stroke="#000" id="svg_17" d="m55.97091,93.65563c-3.67301,0 -6.64815,-2.75718 -6.64815,-6.16111c0,-3.40393 2.97514,-6.16111 6.64815,-6.16111c3.67301,0 6.64815,2.75718 6.64815,6.16111c0,3.40393 -2.97514,6.16111 -6.64815,6.16111z" opacity="undefined" stroke-width="0.2" fill="url(#svg_10)"/>
   <ellipse opacity="undefined" ry="5.84515" rx="6.5016" id="svg_44" cy="81.13803" cx="29.45467" stroke-width="0" fill="url(#svg_70)" stroke="#000"/>
   <path id="svg_45" d="m61.84883,75.71846c-3.42465,0 -4.27247,-1.88951 -4.27247,-5.00818c0,-3.11866 0.84782,-6.28138 4.27247,-6.28138c3.42465,0 6.19862,2.52611 6.19862,5.64478c0,3.11866 -2.77397,5.64478 -6.19862,5.64478z" opacity="undefined" stroke-width="0" fill="#0C372C" stroke="#000"/>
   <ellipse rx="0.38462" id="svg_58" cy="37.95832" cx="33.63412" fill-opacity="0.15" stroke-opacity="0.14" stroke-width="0" stroke="url(#svg_56)" fill="url(#svg_55)"/>
   <line transform="rotate(-9.64399 41.1895 50.9195)" stroke="#444444" fill="none" x1="33.52513" y1="51.42246" x2="48.85384" y2="50.41722" id="svg_13"/>
   <path stroke="#000" stroke-width="0.2" id="svg_16" d="m49.90788,77.89321c-3.69105,0 -6.6808,-2.96021 -6.6808,-6.6148c0,-3.65458 2.98974,-6.6148 6.6808,-6.6148c3.69105,0 6.6808,2.96021 6.6808,6.6148c0,3.65458 -2.98974,6.6148 -6.6808,6.6148z" opacity="undefined" fill="url(#svg_7)"/>
  </g>
 </g>
 <defs>
  <linearGradient y2="0" x2="1" y1="0" x1="0" id="svg_55">
   <stop offset="0" stop-color="#686666"/>
   <stop offset="1" stop-color="#979999"/>
  </linearGradient>
  <radialGradient gradientTransform="rotate(21.000000000000007,0.5,0.5) translate(0.041666666666666685,0) scale(0.9166666666666666,1)" cy="0.5" cx="0.5" r="5.65685" spreadMethod="pad" id="svg_56">
   <stop offset="0" stop-color="#ffffff"/>
   <stop offset="1" stop-color="#000000"/>
  </radialGradient>
  <linearGradient y2="0" x2="1" y1="0" x1="0" id="svg_70">
   <stop offset="0" stop-opacity="0.99609" stop-color="#094209"/>
   <stop offset="0.89063" stop-opacity="0.99219" stop-color="#0c372c"/>
  </linearGradient>
  <linearGradient y2="0" x2="1" y1="0" x1="0" id="svg_82">
   <stop offset="0.125" stop-opacity="0.99219" stop-color="#0e470e"/>
   <stop offset="1" stop-color="#0C372C"/>
  </linearGradient>
  <linearGradient y2="0" x2="1" y1="0.35628" x1="0.28125" id="svg_97">
   <stop offset="0.01953" stop-color="#05125b"/>
   <stop offset="0.99609" stop-opacity="0.99219" stop-color="#0b0b3a"/>
   <stop offset="1" stop-opacity="0.99609" stop-color="#040466"/>
  </linearGradient>
  <linearGradient y2="0" x2="1" y1="0" x1="0" id="svg_7">
   <stop stop-opacity="0.99609" offset="1" stop-color="#cfca6d"/>
   <stop stop-opacity="0.98438" offset="1" stop-color="#91910f"/>
  </linearGradient>
  <linearGradient y2="0" x2="1" y1="0" x1="0" id="svg_10">
   <stop stop-opacity="0.99609" offset="1" stop-color="#cfca6d"/>
   <stop stop-opacity="0.98828" offset="1" stop-color="#84840e"/>
  </linearGradient>
  <linearGradient y2="0" x2="1" y1="0" x1="0" id="svg_21">
   <stop offset="1" stop-color="#CFCA6D"/>
   <stop stop-opacity="0.99609" offset="1" stop-color="#636309"/>
  </linearGradient>
 </defs>
</svg>