<svg width="85" height="120" xmlns="http://www.w3.org/2000/svg">
 <g id="Layer_1">
  <title>Layer 1</title>
  <ellipse id="svg_20" cy="0" cx="77.93016" stroke-width="0" stroke="#000" fill="#05125b"/>
  <g id="svg_18">
   <ellipse transform="rotate(45.5225 72.441 61.202)" opacity="NaN" stroke-width="0" ry="7.74088" rx="12.92042" id="svg_3" cy="61.20188" cx="72.44075" fill="#0C372C" stroke="#000"/>
   <ellipse transform="rotate(-11.5106 59.481 93.059)" stroke-width="0" ry="16.51904" rx="5.90405" id="svg_14" cy="93.05893" cx="59.48136" fill="url(#svg_97)" stroke="#000"/>
   <ellipse transform="rotate(5.07178 33.6135 99.183)" stroke-width="0" ry="13.09883" rx="5.34046" id="svg_11" cy="99.18342" cx="33.6135" fill="url(#svg_97)" stroke="#000"/>
   <path stroke-width="0.2" id="svg_2" d="m46.40662,96.9921c-14.8558,0 -26.889,-10.77256 -26.889,-24.07201c0,-13.29945 12.0332,-24.07201 26.889,-24.07201c14.8558,0 28.01377,10.77256 28.01377,24.07201c0,13.29945 -13.15797,24.07201 -28.01377,24.07201z" opacity="undefined" fill="url(#svg_70)" stroke="#000"/>
   <ellipse transform="rotate(1.00506 32.7138 9.15)" stroke-width="0" ry="7.64829" rx="8.07863" id="svg_6" cy="9.15028" cx="32.71384" fill="#05125b" stroke="#000"/>
   <path id="svg_1" d="m43.92336,62.13817c-13.12189,0 -23.75062,-9.45151 -23.75062,-21.12004c0,-11.66853 10.62873,-21.12004 23.75062,-21.12004c13.12189,0 23.75062,9.45151 23.75062,21.12004c0,11.66853 -10.62873,21.12004 -23.75062,21.12004z" opacity="undefined" stroke-width="0.2" fill="url(#svg_21)" stroke="#000"/>
   <path transform="rotate(12.4508 40.7544 27.536)" stroke-width="0" id="svg_5" d="m20.64646,44.43847l42.8129,-22.37791l-2.29281,-5.22993l-6.2338,-4.22574c0.25935,0.28138 -6.2342,-1.40891 -6.49394,-1.40891c-0.25974,0 -10.12992,-0.28172 -10.38927,-0.5631c0.25935,0.28138 -8.57187,3.38026 -8.83122,3.09887c0.25935,0.28138 -4.93549,3.9437 -5.19483,3.66231c0.25935,0.28138 -4.67575,8.73286 -4.93509,8.45148c0.25935,0.28138 -0.77962,7.606 -1.03896,7.32461c0.25935,0.28138 0.51909,7.32429 0.25974,7.0429c0.25935,0.28139 2.33728,4.22541 2.33728,4.22541l0,0l0,0.00001z" opacity="NaN" fill="url(#svg_82)" stroke="#000"/>
   <ellipse stroke-width="0" ry="2.3819" rx="2.42399" id="svg_8" cy="39.52674" cx="35.03041" fill="#231f1f" stroke="#000000"/>
   <ellipse stroke-width="0" ry="2.23437" rx="2.25956" id="svg_9" cy="37.2293" cx="57.31935" fill="#231f1f" stroke="#000000"/>
   <path transform="rotate(36.0375 37.5402 109.98)" id="svg_12" d="m32.31038,115.51919c-5.73657,0 -5.14472,-3.29553 -5.14472,-6.06489c0,-2.76936 4.64662,-5.01254 10.3832,-5.01254c5.73657,0 10.3832,2.24318 10.3832,5.01254c0,2.76936 -9.8851,6.06489 -15.62168,6.06489z" opacity="undefined" stroke-width="0" fill="#05125b" stroke="#000"/>
   <path transform="rotate(29.9031 66.417 106.721)" id="svg_15" d="m62.99726,113.07029c-6.10658,0.68655 -7.84003,-3.1419 -7.84003,-6.57161c0,-3.42971 5.03908,-6.20778 11.26016,-6.20778c6.22108,0 11.26016,2.77807 11.26016,6.20778c0,3.42971 -8.57371,5.88506 -14.6803,6.57161l0.00001,0z" opacity="undefined" stroke-width="0" fill="#05125b" stroke="#000"/>
   <path transform="rotate(-154.974 15.7925 63.82)" stroke-width="0.2" id="svg_4" d="m15.7925,70.61703c-7.46924,0 -13.51933,-3.04192 -13.51933,-6.79738c0,-3.75546 6.05009,-6.79738 13.51933,-6.79738c7.46924,0 13.51933,3.04192 13.51933,6.79738c0,3.75546 -6.05009,6.79738 -13.51933,6.79738z" opacity="undefined" fill="url(#svg_70)" stroke="#000"/>
   <ellipse transform="rotate(-4.70664 8.0294 51.178)" opacity="undefined" ry="10.38994" rx="6.47377" id="svg_25" cy="51.17788" cx="8.02935" stroke-width="0.2" fill="url(#svg_70)" stroke="#000"/>
   <path stroke-width="0.2" id="svg_16" d="m9.87279,46.70078c-4.27261,0 -7.73343,-3.35277 -7.73343,-7.49199c0,-4.13922 3.46081,-7.49199 7.73343,-7.49199c4.27261,0 7.73343,3.35277 7.73343,7.49199c0,4.13922 -3.46081,7.49199 -7.73343,7.49199z" opacity="undefined" fill="url(#svg_7)" stroke="#000"/>
   <ellipse transform="rotate(-39.8975 74.571 76.561)" opacity="NaN" stroke-width="0.2" ry="5.8892" rx="11.51626" id="svg_27" cy="76.56139" cx="74.57107" fill="#0C372C" stroke="#000"/>
   <path id="svg_17" d="m65.81698,89.45569c-4.02945,0 -7.29331,-3.19026 -7.29331,-7.12885c0,-3.93859 3.26386,-7.12885 7.29331,-7.12885c4.02945,0 7.29331,3.19026 7.29331,7.12885c0,3.93859 -3.26386,7.12885 -7.29331,7.12885z" opacity="undefined" stroke-width="0.2" fill="url(#svg_10)" stroke="#000"/>
   <ellipse opacity="undefined" ry="4.77999" rx="5.54922" id="svg_44" cy="58.42931" cx="7.48976" stroke-width="0" fill="url(#svg_70)" stroke="#000"/>
   <path id="svg_45" d="m78.65585,73.97466c-3.42465,0 -5.3251,-1.53863 -5.3251,-4.6573c0,-3.11866 1.90045,-6.63226 5.3251,-6.63226c3.42465,0 6.19862,2.52611 6.19862,5.64478c0,3.11866 -2.77397,5.64478 -6.19862,5.64478z" opacity="undefined" stroke-width="0" fill="#0C372C" stroke="#000"/>
   <ellipse rx="0.38462" id="svg_58" cy="38.31978" cx="47.63412" fill-opacity="0.15" stroke-opacity="0.14" stroke-width="0" stroke="url(#svg_56)" fill="url(#svg_55)"/>
   <line transform="rotate(-9.64399 47.2863 50.959)" fill="none" x1="38.50887" y1="51.2722" x2="56.06373" y2="50.64524" id="svg_13" stroke="#444444"/>
  </g>
 </g>
 <defs>
  <linearGradient y2="0" x2="1" y1="0" x1="0" id="svg_55">
   <stop offset="0" stop-color="#686666"/>
   <stop offset="1" stop-color="#979999"/>
  </linearGradient>
  <radialGradient gradientTransform="rotate(21.000000000000007,0.5,0.5) translate(0.041666666666666685,0) scale(0.9166666666666666,1)" cy="0.5" cx="0.5" r="5.65685" spreadMethod="pad" id="svg_56">
   <stop offset="0" stop-color="#ffffff"/>
   <stop offset="1" stop-color="#000000"/>
  </radialGradient>
  <linearGradient y2="0" x2="1" y1="0" x1="0" id="svg_70">
   <stop offset="0" stop-opacity="0.99609" stop-color="#094209"/>
   <stop offset="0.89063" stop-opacity="0.99219" stop-color="#0c372c"/>
  </linearGradient>
  <linearGradient y2="0" x2="1" y1="0" x1="0" id="svg_82">
   <stop offset="0.125" stop-opacity="0.99219" stop-color="#0e470e"/>
   <stop offset="1" stop-color="#0C372C"/>
  </linearGradient>
  <linearGradient y2="0" x2="1" y1="0.35628" x1="0.28125" id="svg_97">
   <stop offset="0.01953" stop-color="#05125b"/>
   <stop offset="0.99609" stop-opacity="0.99219" stop-color="#0b0b3a"/>
   <stop offset="1" stop-opacity="0.99609" stop-color="#040466"/>
  </linearGradient>
  <linearGradient y2="0" x2="1" y1="0" x1="0" id="svg_7">
   <stop stop-opacity="0.99609" offset="1" stop-color="#cfca6d"/>
   <stop stop-opacity="0.98438" offset="1" stop-color="#91910f"/>
  </linearGradient>
  <linearGradient y2="0" x2="1" y1="0" x1="0" id="svg_10">
   <stop stop-opacity="0.99609" offset="1" stop-color="#cfca6d"/>
   <stop stop-opacity="0.98828" offset="1" stop-color="#84840e"/>
  </linearGradient>
  <linearGradient y2="0" x2="1" y1="0" x1="0" id="svg_21">
   <stop offset="1" stop-color="#CFCA6D"/>
   <stop stop-opacity="0.99609" offset="1" stop-color="#636309"/>
  </linearGradient>
 </defs>
</svg>