<svg viewBox="0 0 260 251" xmlns="http://www.w3.org/2000/svg">
 <g id="Layer_1">
  <title>Layer 1</title>
  <path transform="rotate(47.7752 142.513 170.31)" stroke="url(#svg_56)" fill="url(#svg_55)" opacity="undefined" d="m140.94657,216.5045c-10.97885,0 -17.17033,-21.14008 -17.17033,-45.13625c0,-23.99616 9.94728,-47.25341 20.92612,-47.25341c10.97885,0 16.54787,14.57595 16.54787,38.57212c0,23.99616 -9.32482,53.81755 -20.30367,53.81755l0,-0.00001z" id="svg_51" stroke-opacity="0.14" fill-opacity="0.08" stroke-width="0"/>
  <ellipse transform="rotate(45.5225 113.441 158.202)" stroke="#000" fill="#0C372C" cx="113.44075" cy="158.20188" id="svg_3" rx="12.92042" ry="7.74088" stroke-width="0" opacity="NaN"/>
  <ellipse transform="rotate(-11.5106 100.481 190.059)" stroke="#000" fill="url(#svg_97)" cx="100.48136" cy="190.05893" id="svg_14" rx="5.90405" ry="16.51904" stroke-width="0"/>
  <ellipse transform="rotate(5.07178 74.6135 196.183)" stroke="#000" fill="url(#svg_97)" cx="74.6135" cy="196.18342" id="svg_11" rx="5.34046" ry="13.09883" stroke-width="0"/>
  <path stroke="#000" fill="url(#svg_70)" opacity="undefined" d="m87.40662,193.9921c-14.8558,0 -26.889,-10.77256 -26.889,-24.07201c0,-13.29945 12.0332,-24.07201 26.889,-24.07201c14.8558,0 28.01377,10.77256 28.01377,24.07201c0,13.29945 -13.15797,24.07201 -28.01377,24.07201z" id="svg_2" stroke-width="0.2"/>
  <ellipse transform="rotate(1.00506 73.7138 106.15)" stroke="#000" fill="#05125b" cx="73.71384" cy="106.15028" id="svg_6" rx="8.07863" ry="7.64829" stroke-width="0"/>
  <path stroke="#000" fill="url(#svg_21)" stroke-width="0.2" opacity="undefined" d="m84.92336,159.13817c-13.12189,0 -23.75062,-9.45151 -23.75062,-21.12004c0,-11.66853 10.62873,-21.12004 23.75062,-21.12004c13.12189,0 23.75062,9.45151 23.75062,21.12004c0,11.66853 -10.62873,21.12004 -23.75062,21.12004z" id="svg_1"/>
  <path transform="rotate(12.4508 81.7544 124.536)" stroke="#000" fill="url(#svg_82)" opacity="NaN" d="m61.64646,141.43847l42.8129,-22.37791l-2.29281,-5.22993l-6.2338,-4.22574c0.25935,0.28138 -6.2342,-1.40891 -6.49394,-1.40891c-0.25974,0 -10.12992,-0.28172 -10.38927,-0.5631c0.25935,0.28138 -8.57187,3.38026 -8.83122,3.09887c0.25935,0.28138 -4.93549,3.9437 -5.19483,3.66231c0.25935,0.28138 -4.67575,8.73286 -4.93509,8.45148c0.25935,0.28138 -0.77962,7.606 -1.03896,7.32461c0.25935,0.28138 0.51909,7.32429 0.25974,7.0429c0.25935,0.28139 2.33728,4.22541 2.33728,4.22541l0,0z" id="svg_5" stroke-width="0"/>
  <ellipse stroke="#000000" fill="#231f1f" cx="76.03041" cy="136.52674" id="svg_8" rx="2.42399" ry="2.3819" stroke-width="0"/>
  <ellipse stroke="#000000" fill="#231f1f" cx="98.31935" cy="134.2293" id="svg_9" rx="2.25956" ry="2.23437" stroke-width="0"/>
  <path transform="rotate(36.0375 78.5402 206.98)" stroke="#000" fill="#05125b" stroke-width="0" opacity="undefined" d="m73.31038,212.51919c-5.73657,0 -5.14472,-3.29553 -5.14472,-6.06489c0,-2.76936 4.64662,-5.01254 10.3832,-5.01254c5.73657,0 10.3832,2.24318 10.3832,5.01254c0,2.76936 -9.8851,6.06489 -15.62168,6.06489z" id="svg_12"/>
  <path transform="rotate(29.9031 107.417 203.721)" stroke="#000" fill="#05125b" stroke-width="0" opacity="undefined" d="m103.99726,210.07029c-6.10658,0.68655 -7.84003,-3.1419 -7.84003,-6.57161c0,-3.42971 5.03908,-6.20778 11.26016,-6.20778c6.22108,0 11.26016,2.77807 11.26016,6.20778c0,3.42971 -8.57371,5.88506 -14.6803,6.57161z" id="svg_15"/>
  <path transform="rotate(-154.974 56.7925 160.82)" stroke="#000" fill="url(#svg_70)" opacity="undefined" d="m56.7925,167.61703c-7.46924,0 -13.51933,-3.04192 -13.51933,-6.79738c0,-3.75546 6.05009,-6.79738 13.51933,-6.79738c7.46924,0 13.51933,3.04192 13.51933,6.79738c0,3.75546 -6.05009,6.79738 -13.51933,6.79738z" id="svg_4" stroke-width="0.2"/>
  <ellipse transform="rotate(-4.70664 49.0294 148.178)" stroke="#000" fill="url(#svg_70)" stroke-width="0.2" cx="49.02935" cy="148.17788" id="svg_25" rx="6.47377" ry="10.38994" opacity="undefined"/>
  <path stroke="#000" fill="url(#svg_7)" opacity="undefined" d="m50.87279,143.70078c-4.27261,0 -7.73343,-3.35277 -7.73343,-7.49199c0,-4.13922 3.46081,-7.49199 7.73343,-7.49199c4.27261,0 7.73343,3.35277 7.73343,7.49199c0,4.13922 -3.46081,7.49199 -7.73343,7.49199z" id="svg_16" stroke-width="0.2"/>
  <ellipse transform="rotate(-39.8975 115.571 173.561)" stroke="#000" fill="#0C372C" cx="115.57107" cy="173.56139" id="svg_27" rx="11.51626" ry="5.8892" stroke-width="0.2" opacity="NaN"/>
  <path stroke="#000" fill="url(#svg_10)" stroke-width="0.2" opacity="undefined" d="m106.81698,186.45569c-4.02945,0 -7.29331,-3.19026 -7.29331,-7.12885c0,-3.93859 3.26386,-7.12885 7.29331,-7.12885c4.02945,0 7.29331,3.19026 7.29331,7.12885c0,3.93859 -3.26386,7.12885 -7.29331,7.12885z" id="svg_17"/>
  <ellipse stroke="#000" fill="url(#svg_70)" stroke-width="0" cx="48.48976" cy="155.42931" id="svg_44" rx="5.54922" ry="4.77999" opacity="undefined"/>
  <path stroke="#000" fill="#0C372C" stroke-width="0" opacity="undefined" d="m119.65585,170.97466c-3.42465,0 -5.3251,-1.53863 -5.3251,-4.6573c0,-3.11866 1.90045,-6.63226 5.3251,-6.63226c3.42465,0 6.19862,2.52611 6.19862,5.64478c0,3.11866 -2.77397,5.64478 -6.19862,5.64478z" id="svg_45"/>
  <ellipse fill="url(#svg_55)" stroke="url(#svg_56)" stroke-width="0" stroke-opacity="0.14" fill-opacity="0.15" cx="88.63412" cy="135.31978" id="svg_58" rx="0.38462"/>
  <path transform="rotate(56.3166 180.499 140.646)" stroke="url(#svg_56)" fill="url(#svg_55)" fill-opacity="0.07" stroke-width="0" stroke-opacity="0.14" opacity="undefined" d="m180.26673,142.93501c-2.94127,0 -6.32914,3.31637 -4.92935,-0.83319c1.39979,-4.14956 1.98808,-4.99914 4.92935,-4.99914c2.94127,0 5.8054,1.12704 5.71805,4.99914c-0.08735,3.8721 -2.77678,0.83319 -5.71805,0.83319z" id="svg_59"/>
  <ellipse fill="#05125b" stroke="#000" stroke-width="0" cx="77.93016" cy="0" id="svg_20"/>
  <line transform="rotate(-9.64399 88.2863 147.959)" stroke="#444444" id="svg_13" y2="147.64524" x2="97.06373" y1="148.2722" x1="79.50887" fill="none"/>
 </g>
 <defs>
  <linearGradient id="svg_55" x1="0" y1="0" x2="1" y2="0">
   <stop stop-color="#686666" offset="0"/>
   <stop stop-color="#979999" offset="1"/>
  </linearGradient>
  <radialGradient id="svg_56" spreadMethod="pad" r="5.65685" cx="0.5" cy="0.5" gradientTransform="rotate(21.000000000000007,0.5,0.5) translate(0.041666666666666685,0) scale(0.9166666666666666,1)">
   <stop stop-color="#ffffff" offset="0"/>
   <stop stop-color="#000000" offset="1"/>
  </radialGradient>
  <linearGradient id="svg_70" x1="0" y1="0" x2="1" y2="0">
   <stop stop-color="#094209" stop-opacity="0.99609" offset="0"/>
   <stop stop-color="#0c372c" stop-opacity="0.99219" offset="0.89063"/>
  </linearGradient>
  <linearGradient id="svg_82" x1="0" y1="0" x2="1" y2="0">
   <stop stop-color="#0e470e" stop-opacity="0.99219" offset="0.125"/>
   <stop stop-color="#0C372C" offset="1"/>
  </linearGradient>
  <linearGradient id="svg_97" x1="0.28125" y1="0.35628" x2="1" y2="0">
   <stop stop-color="#05125b" offset="0.01953"/>
   <stop stop-color="#0b0b3a" stop-opacity="0.99219" offset="0.99609"/>
   <stop stop-color="#040466" stop-opacity="0.99609" offset="1"/>
  </linearGradient>
  <linearGradient id="svg_7" x1="0" y1="0" x2="1" y2="0">
   <stop stop-color="#cfca6d" offset="1" stop-opacity="0.99609"/>
   <stop stop-color="#91910f" offset="1" stop-opacity="0.98438"/>
  </linearGradient>
  <linearGradient id="svg_10" x1="0" y1="0" x2="1" y2="0">
   <stop stop-color="#cfca6d" offset="1" stop-opacity="0.99609"/>
   <stop stop-color="#84840e" offset="1" stop-opacity="0.98828"/>
  </linearGradient>
  <linearGradient id="svg_21" x1="0" y1="0" x2="1" y2="0">
   <stop stop-color="#CFCA6D" offset="1"/>
   <stop stop-color="#636309" offset="1" stop-opacity="0.99609"/>
  </linearGradient>
 </defs>
</svg>